<svg width="256" height="256" viewBox="0 0 256 256" fill="none" xmlns="http://www.w3.org/2000/svg">
  <rect width="256" height="256" rx="46" fill="url(#bg)"/>
  <path d="M24 176C62 154 92 145 132 147C168 149 201 161 232 177" stroke="#0B5DB7" stroke-width="10" stroke-linecap="round"/>
  <path d="M150 130L172 98L196 129H184L171 113L160 130H150Z" fill="#0B4DA1"/>
  <path d="M168 130L188 102L216 130H168Z" fill="#0A3B85"/>
  <path d="M46 142V102C46 91 55 82 66 82H110C121 82 130 91 130 102V142H46Z" fill="#B7863A"/>
  <path d="M86 142V117C86 109 92 103 100 103H107V142H86Z" fill="#8B5D1C"/>
  <circle cx="151" cy="89" r="17" fill="#F4BD4A"/>
  <path d="M186 74L222 59L199 84L214 86L198 95L193 108L189 94L175 90L186 84L186 74Z" fill="#0D63C2"/>
  <path d="M166 192H210" stroke="#B7863A" stroke-width="6" stroke-linecap="round"/>
  <path d="M44 192H88" stroke="#B7863A" stroke-width="6" stroke-linecap="round"/>
  <text x="128" y="205" text-anchor="middle" font-size="34" font-family="Trebuchet MS, Arial, sans-serif" font-weight="800" fill="#0B4DA1">ATABEK</text>
  <text x="128" y="230" text-anchor="middle" font-size="18" font-family="Trebuchet MS, Arial, sans-serif" font-weight="700" letter-spacing="3" fill="#B7863A">TRAVELING</text>
  <defs>
    <linearGradient id="bg" x1="128" y1="0" x2="128" y2="256" gradientUnits="userSpaceOnUse">
      <stop stop-color="#F7FBFF"/>
      <stop offset="1" stop-color="#FAF4E8"/>
    </linearGradient>
  </defs>
</svg>
